# xmcd
#
# Track frame offsets: 
#        150
#        11219
#        24749
#        34228
#        51767
#        80228
#        92927
#        109124
#        136202
#        144827
#        167324
#        202245
#        218724
#
# Disc length: 3197 seconds
#
# Revision: 0
# Processed by: cddbd v1.5.2PL0 Copyright (c) Steve Scherf et al.
# Submitted via: ExactAudioCopyFreeDBPlugin 1.0
#
DISCID=b70c7b0d
DTITLE=江蘇省歌舞團民族樂隊 - 無比傳真—貳
DYEAR=1900
DGENRE=Country
TTITLE0=喜洋洋
TTITLE1=京變
TTITLE2=蘇南小調
TTITLE3=幸福年
TTITLE4=陽關三疊
TTITLE5=喜慶的日子
TTITLE6=紫竹調
TTITLE7=二泉映月
TTITLE8=賽馬
TTITLE9=江南好
TTITLE10=竹歌
TTITLE11=姑蘇情
TTITLE12=蘇武牧羊
EXTD=
EXTT0=
EXTT1=
EXTT2=
EXTT3=
EXTT4=
EXTT5=
EXTT6=
EXTT7=
EXTT8=
EXTT9=
EXTT10=
EXTT11=
EXTT12=
PLAYORDER=
